STARTFONT 2.1
FONT -xos4-Terminus Powerline-Medium-R-Normal--14-140-72-72-C-80-ISO8859-1
SIZE 14 72 72
FONTBOUNDINGBOX 8 14 0 -2
STARTPROPERTIES 24
FAMILY_NAME "Terminus Powerline"
FOUNDRY "xos4"
SETWIDTH_NAME "Normal"
ADD_STYLE_NAME ""
COPYRIGHT "Copyright (C) 2012 Dimitar Toshkov Zhekov"
NOTICE "Licensed under the SIL Open Font License, Version 1.1"
WEIGHT_NAME "Medium"
SLANT "R"
PIXEL_SIZE 14
POINT_SIZE 140
RESOLUTION_X 72
RESOLUTION_Y 72
SPACING "C"
AVERAGE_WIDTH 80
CHARSET_REGISTRY "ISO8859"
CHARSET_ENCODING "1"
MIN_SPACE 8
WEIGHT 10
X_HEIGHT 12
QUAD_WIDTH 8
DEFAULT_CHAR 46
FONT_DESCENT 2
FONT_ASCENT 12
_GBDFED_INFO "Edited with gbdfed 1.6."
ENDPROPERTIES
CHARS 262
STARTCHAR uni25AE
ENCODING 0
SWIDTH 571 0
DWIDTH 8 0
BBX 8 14 0 -2
BITMAP
00
00
7E
7E
7E
7E
7E
7E
7E
7E
7E
7E
00
00
ENDCHAR
STARTCHAR blackdiamond
ENCODING 1
SWIDTH 571 0
DWIDTH 8 0
BBX 8 14 0 -2
BITMAP
00
00
00
00
10
38
7C
FE
7C
38
10
00
00
00
ENDCHAR
STARTCHAR shade
ENCODING 2
SWIDTH 571 0
DWIDTH 8 0
BBX 8 14 0 -2
BITMAP
AA
55
AA
55
AA
55
AA
55
AA
55
AA
55
AA
55
ENDCHAR
STARTCHAR uni2409
ENCODING 3
SWIDTH 571 0
DWIDTH 8 0
BBX 8 14 0 -2
BITMAP
00
88
88
F8
88
88
00
1F
04
04
04
04
00
00
ENDCHAR
STARTCHAR uni240C
ENCODING 4
SWIDTH 571 0
DWIDTH 8 0
BBX 8 14 0 -2
BITMAP
00
F8
80
E0
80
80
00
1F
10
1C
10
10
00
00
ENDCHAR
STARTCHAR uni240D
ENCODING 5
SWIDTH 571 0
DWIDTH 8 0
BBX 8 14 0 -2
BITMAP
00
70
88
80
88
70
00
1E
11
1E
12
11
00
00
ENDCHAR
STARTCHAR uni240A
ENCODING 6
SWIDTH 571 0
DWIDTH 8 0
BBX 8 14 0 -2
BITMAP
00
80
80
80
80
F8
00
1F
10
1C
10
10
00
00
ENDCHAR
STARTCHAR degree
ENCODING 7
SWIDTH 571 0
DWIDTH 8 0
BBX 8 14 0 -2
BITMAP
00
18
24
24
18
00
00
00
00
00
00
00
00
00
ENDCHAR
STARTCHAR plusminus
ENCODING 8
SWIDTH 571 0
DWIDTH 8 0
BBX 8 14 0 -2
BITMAP
00
00
00
00
00
10
10
7C
10
10
00
7C
00
00
ENDCHAR
STARTCHAR uni2424
ENCODING 9
SWIDTH 571 0
DWIDTH 8 0
BBX 8 14 0 -2
BITMAP
00
88
C8
A8
98
88
00
10
10
10
10
1F
00
00
ENDCHAR
STARTCHAR uni240B
ENCODING 10
SWIDTH 571 0
DWIDTH 8 0
BBX 8 14 0 -2
BITMAP
00
88
88
50
50
20
00
1F
04
04
04
04
00
00
ENDCHAR
STARTCHAR SF040000
ENCODING 11
SWIDTH 571 0
DWIDTH 8 0
BBX 8 14 0 -2
BITMAP
10
10
10
10
10
10
F0
00
00
00
00
00
00
00
ENDCHAR
STARTCHAR SF030000
ENCODING 12
SWIDTH 571 0
DWIDTH 8 0
BBX 8 14 0 -2
BITMAP
00
00
00
00
00
00
F0
10
10
10
10
10
10
10
ENDCHAR
STARTCHAR SF010000
ENCODING 13
SWIDTH 571 0
DWIDTH 8 0
BBX 8 14 0 -2
BITMAP
00
00
00
00
00
00
1F
10
10
10
10
10
10
10
ENDCHAR
STARTCHAR SF020000
ENCODING 14
SWIDTH 571 0
DWIDTH 8 0
BBX 8 14 0 -2
BITMAP
10
10
10
10
10
10
1F
00
00
00
00
00
00
00
ENDCHAR
STARTCHAR SF050000
ENCODING 15
SWIDTH 571 0
DWIDTH 8 0
BBX 8 14 0 -2
BITMAP
10
10
10
10
10
10
FF
10
10
10
10
10
10
10
ENDCHAR
STARTCHAR uni23BA
ENCODING 16
SWIDTH 571 0
DWIDTH 8 0
BBX 8 14 0 -2
BITMAP
FF
00
00
00
00
00
00
00
00
00
00
00
00
00
ENDCHAR
STARTCHAR uni23BB
ENCODING 17
SWIDTH 571 0
DWIDTH 8 0
BBX 8 14 0 -2
BITMAP
00
00
00
FF
00
00
00
00
00
00
00
00
00
00
ENDCHAR
STARTCHAR SF100000
ENCODING 18
SWIDTH 571 0
DWIDTH 8 0
BBX 8 14 0 -2
BITMAP
00
00
00
00
00
00
FF
00
00
00
00
00
00
00
ENDCHAR
STARTCHAR uni23BC
ENCODING 19
SWIDTH 571 0
DWIDTH 8 0
BBX 8 14 0 -2
BITMAP
00
00
00
00
00
00
00
00
00
00
FF
00
00
00
ENDCHAR
STARTCHAR uni23BD
ENCODING 20
SWIDTH 571 0
DWIDTH 8 0
BBX 8 14 0 -2
BITMAP
00
00
00
00
00
00
00
00
00
00
00
00
00
FF
ENDCHAR
STARTCHAR SF080000
ENCODING 21
SWIDTH 571 0
DWIDTH 8 0
BBX 8 14 0 -2
BITMAP
10
10
10
10
10
10
1F
10
10
10
10
10
10
10
ENDCHAR
STARTCHAR SF090000
ENCODING 22
SWIDTH 571 0
DWIDTH 8 0
BBX 8 14 0 -2
BITMAP
10
10
10
10
10
10
F0
10
10
10
10
10
10
10
ENDCHAR
STARTCHAR SF070000
ENCODING 23
SWIDTH 571 0
DWIDTH 8 0
BBX 8 14 0 -2
BITMAP
10
10
10
10
10
10
FF
00
00
00
00
00
00
00
ENDCHAR
STARTCHAR SF060000
ENCODING 24
SWIDTH 571 0
DWIDTH 8 0
BBX 8 14 0 -2
BITMAP
00
00
00
00
00
00
FF
10
10
10
10
10
10
10
ENDCHAR
STARTCHAR SF110000
ENCODING 25
SWIDTH 571 0
DWIDTH 8 0
BBX 8 14 0 -2
BITMAP
10
10
10
10
10
10
10
10
10
10
10
10
10
10
ENDCHAR
STARTCHAR lessequal
ENCODING 26
SWIDTH 571 0
DWIDTH 8 0
BBX 8 14 0 -2
BITMAP
00
00
00
04
08
10
20
10
08
04
00
3E
00
00
ENDCHAR
STARTCHAR greaterequal
ENCODING 27
SWIDTH 571 0
DWIDTH 8 0
BBX 8 14 0 -2
BITMAP
00
00
00
20
10
08
04
08
10
20
00
7C
00
00
ENDCHAR
STARTCHAR pi
ENCODING 28
SWIDTH 571 0
DWIDTH 8 0
BBX 8 14 0 -2
BITMAP
00
00
00
00
00
7E
42
42
42
42
42
42
00
00
ENDCHAR
STARTCHAR notequal
ENCODING 29
SWIDTH 571 0
DWIDTH 8 0
BBX 8 14 0 -2
BITMAP
00
00
00
00
02
7E
08
10
7E
40
00
00
00
00
ENDCHAR
STARTCHAR sterling
ENCODING 30
SWIDTH 571 0
DWIDTH 8 0
BBX 8 14 0 -2
BITMAP
00
00
18
24
20
20
78
20
20
20
22
7E
00
00
ENDCHAR
STARTCHAR periodcentered
ENCODING 31
SWIDTH 571 0
DWIDTH 8 0
BBX 8 14 0 -2
BITMAP
00
00
00
00
00
00
10
10
00
00
00
00
00
00
ENDCHAR
STARTCHAR space
ENCODING 32
SWIDTH 571 0
DWIDTH 8 0
BBX 8 14 0 -2
BITMAP
00
00
00
00
00
00
00
00
00
00
00
00
00
00
ENDCHAR
STARTCHAR exclam
ENCODING 33
SWIDTH 571 0
DWIDTH 8 0
BBX 8 14 0 -2
BITMAP
00
00
10
10
10
10
10
10
10
00
10
10
00
00
ENDCHAR
STARTCHAR quotedbl
ENCODING 34
SWIDTH 571 0
DWIDTH 8 0
BBX 8 14 0 -2
BITMAP
00
24
24
24
00
00
00
00
00
00
00
00
00
00
ENDCHAR
STARTCHAR numbersign
ENCODING 35
SWIDTH 571 0
DWIDTH 8 0
BBX 8 14 0 -2
BITMAP
00
00
24
24
24
7E
24
24
7E
24
24
24
00
00
ENDCHAR
STARTCHAR dollar
ENCODING 36
SWIDTH 571 0
DWIDTH 8 0
BBX 8 14 0 -2
BITMAP
00
10
10
7C
92
90
90
7C
12
12
92
7C
10
10
ENDCHAR
STARTCHAR percent
ENCODING 37
SWIDTH 571 0
DWIDTH 8 0
BBX 8 14 0 -2
BITMAP
00
00
64
94
68
08
10
10
20
2C
52
4C
00
00
ENDCHAR
STARTCHAR ampersand
ENCODING 38
SWIDTH 571 0
DWIDTH 8 0
BBX 8 14 0 -2
BITMAP
00
00
18
24
24
18
30
4A
44
44
44
3A
00
00
ENDCHAR
STARTCHAR quotesingle
ENCODING 39
SWIDTH 571 0
DWIDTH 8 0
BBX 8 14 0 -2
BITMAP
00
10
10
10
00
00
00
00
00
00
00
00
00
00
ENDCHAR
STARTCHAR parenleft
ENCODING 40
SWIDTH 571 0
DWIDTH 8 0
BBX 8 14 0 -2
BITMAP
00
00
08
10
20
20
20
20
20
20
10
08
00
00
ENDCHAR
STARTCHAR parenright
ENCODING 41
SWIDTH 571 0
DWIDTH 8 0
BBX 8 14 0 -2
BITMAP
00
00
20
10
08
08
08
08
08
08
10
20
00
00
ENDCHAR
STARTCHAR asterisk
ENCODING 42
SWIDTH 571 0
DWIDTH 8 0
BBX 8 14 0 -2
BITMAP
00
00
00
00
00
24
18
7E
18
24
00
00
00
00
ENDCHAR
STARTCHAR plus
ENCODING 43
SWIDTH 571 0
DWIDTH 8 0
BBX 8 14 0 -2
BITMAP
00
00
00
00
00
10
10
7C
10
10
00
00
00
00
ENDCHAR
STARTCHAR comma
ENCODING 44
SWIDTH 571 0
DWIDTH 8 0
BBX 8 14 0 -2
BITMAP
00
00
00
00
00
00
00
00
00
00
10
10
20
00
ENDCHAR
STARTCHAR hyphen
ENCODING 45
SWIDTH 571 0
DWIDTH 8 0
BBX 8 14 0 -2
BITMAP
00
00
00
00
00
00
00
7E
00
00
00
00
00
00
ENDCHAR
STARTCHAR period
ENCODING 46
SWIDTH 571 0
DWIDTH 8 0
BBX 8 14 0 -2
BITMAP
00
00
00
00
00
00
00
00
00
00
10
10
00
00
ENDCHAR
STARTCHAR slash
ENCODING 47
SWIDTH 571 0
DWIDTH 8 0
BBX 8 14 0 -2
BITMAP
00
00
04
04
08
08
10
10
20
20
40
40
00
00
ENDCHAR
STARTCHAR zero
ENCODING 48
SWIDTH 571 0
DWIDTH 8 0
BBX 8 14 0 -2
BITMAP
00
00
3C
42
42
46
4A
52
62
42
42
3C
00
00
ENDCHAR
STARTCHAR one
ENCODING 49
SWIDTH 571 0
DWIDTH 8 0
BBX 8 14 0 -2
BITMAP
00
00
08
18
28
08
08
08
08
08
08
08
00
00
ENDCHAR
STARTCHAR two
ENCODING 50
SWIDTH 571 0
DWIDTH 8 0
BBX 8 14 0 -2
BITMAP
00
00
3C
42
42
02
04
08
10
20
40
7E
00
00
ENDCHAR
STARTCHAR three
ENCODING 51
SWIDTH 571 0
DWIDTH 8 0
BBX 8 14 0 -2
BITMAP
00
00
3C
42
42
02
1C
02
02
42
42
3C
00
00
ENDCHAR
STARTCHAR four
ENCODING 52
SWIDTH 571 0
DWIDTH 8 0
BBX 8 14 0 -2
BITMAP
00
00
02
06
0A
12
22
42
7E
02
02
02
00
00
ENDCHAR
STARTCHAR five
ENCODING 53
SWIDTH 571 0
DWIDTH 8 0
BBX 8 14 0 -2
BITMAP
00
00
7E
40
40
40
7C
02
02
02
42
3C
00
00
ENDCHAR
STARTCHAR six
ENCODING 54
SWIDTH 571 0
DWIDTH 8 0
BBX 8 14 0 -2
BITMAP
00
00
1C
20
40
40
7C
42
42
42
42
3C
00
00
ENDCHAR
STARTCHAR seven
ENCODING 55
SWIDTH 571 0
DWIDTH 8 0
BBX 8 14 0 -2
BITMAP
00
00
7E
02
02
04
04
08
08
10
10
10
00
00
ENDCHAR
STARTCHAR eight
ENCODING 56
SWIDTH 571 0
DWIDTH 8 0
BBX 8 14 0 -2
BITMAP
00
00
3C
42
42
42
3C
42
42
42
42
3C
00
00
ENDCHAR
STARTCHAR nine
ENCODING 57
SWIDTH 571 0
DWIDTH 8 0
BBX 8 14 0 -2
BITMAP
00
00
3C
42
42
42
42
3E
02
02
04
38
00
00
ENDCHAR
STARTCHAR colon
ENCODING 58
SWIDTH 571 0
DWIDTH 8 0
BBX 8 14 0 -2
BITMAP
00
00
00
00
00
10
10
00
00
00
10
10
00
00
ENDCHAR
STARTCHAR semicolon
ENCODING 59
SWIDTH 571 0
DWIDTH 8 0
BBX 8 14 0 -2
BITMAP
00
00
00
00
00
10
10
00
00
00
10
10
20
00
ENDCHAR
STARTCHAR less
ENCODING 60
SWIDTH 571 0
DWIDTH 8 0
BBX 8 14 0 -2
BITMAP
00
00
00
04
08
10
20
40
20
10
08
04
00
00
ENDCHAR
STARTCHAR equal
ENCODING 61
SWIDTH 571 0
DWIDTH 8 0
BBX 8 14 0 -2
BITMAP
00
00
00
00
00
7E
00
00
7E
00
00
00
00
00
ENDCHAR
STARTCHAR greater
ENCODING 62
SWIDTH 571 0
DWIDTH 8 0
BBX 8 14 0 -2
BITMAP
00
00
00
40
20
10
08
04
08
10
20
40
00
00
ENDCHAR
STARTCHAR question
ENCODING 63
SWIDTH 571 0
DWIDTH 8 0
BBX 8 14 0 -2
BITMAP
00
00
3C
42
42
42
04
08
08
00
08
08
00
00
ENDCHAR
STARTCHAR at
ENCODING 64
SWIDTH 571 0
DWIDTH 8 0
BBX 8 14 0 -2
BITMAP
00
00
7C
82
9E
A2
A2
A2
A6
9A
80
7E
00
00
ENDCHAR
STARTCHAR A
ENCODING 65
SWIDTH 571 0
DWIDTH 8 0
BBX 8 14 0 -2
BITMAP
00
00
3C
42
42
42
42
7E
42
42
42
42
00
00
ENDCHAR
STARTCHAR B
ENCODING 66
SWIDTH 571 0
DWIDTH 8 0
BBX 8 14 0 -2
BITMAP
00
00
7C
42
42
42
7C
42
42
42
42
7C
00
00
ENDCHAR
STARTCHAR C
ENCODING 67
SWIDTH 571 0
DWIDTH 8 0
BBX 8 14 0 -2
BITMAP
00
00
3C
42
42
40
40
40
40
42
42
3C
00
00
ENDCHAR
STARTCHAR D
ENCODING 68
SWIDTH 571 0
DWIDTH 8 0
BBX 8 14 0 -2
BITMAP
00
00
78
44
42
42
42
42
42
42
44
78
00
00
ENDCHAR
STARTCHAR E
ENCODING 69
SWIDTH 571 0
DWIDTH 8 0
BBX 8 14 0 -2
BITMAP
00
00
7E
40
40
40
78
40
40
40
40
7E
00
00
ENDCHAR
STARTCHAR F
ENCODING 70
SWIDTH 571 0
DWIDTH 8 0
BBX 8 14 0 -2
BITMAP
00
00
7E
40
40
40
78
40
40
40
40
40
00
00
ENDCHAR
STARTCHAR G
ENCODING 71
SWIDTH 571 0
DWIDTH 8 0
BBX 8 14 0 -2
BITMAP
00
00
3C
42
42
40
40
4E
42
42
42
3C
00
00
ENDCHAR
STARTCHAR H
ENCODING 72
SWIDTH 571 0
DWIDTH 8 0
BBX 8 14 0 -2
BITMAP
00
00
42
42
42
42
7E
42
42
42
42
42
00
00
ENDCHAR
STARTCHAR I
ENCODING 73
SWIDTH 571 0
DWIDTH 8 0
BBX 8 14 0 -2
BITMAP
00
00
38
10
10
10
10
10
10
10
10
38
00
00
ENDCHAR
STARTCHAR J
ENCODING 74
SWIDTH 571 0
DWIDTH 8 0
BBX 8 14 0 -2
BITMAP
00
00
0E
04
04
04
04
04
04
44
44
38
00
00
ENDCHAR
STARTCHAR K
ENCODING 75
SWIDTH 571 0
DWIDTH 8 0
BBX 8 14 0 -2
BITMAP
00
00
42
44
48
50
60
60
50
48
44
42
00
00
ENDCHAR
STARTCHAR L
ENCODING 76
SWIDTH 571 0
DWIDTH 8 0
BBX 8 14 0 -2
BITMAP
00
00
40
40
40
40
40
40
40
40
40
7E
00
00
ENDCHAR
STARTCHAR M
ENCODING 77
SWIDTH 571 0
DWIDTH 8 0
BBX 8 14 0 -2
BITMAP
00
00
82
C6
AA
92
92
82
82
82
82
82
00
00
ENDCHAR
STARTCHAR N
ENCODING 78
SWIDTH 571 0
DWIDTH 8 0
BBX 8 14 0 -2
BITMAP
00
00
42
42
42
62
52
4A
46
42
42
42
00
00
ENDCHAR
STARTCHAR O
ENCODING 79
SWIDTH 571 0
DWIDTH 8 0
BBX 8 14 0 -2
BITMAP
00
00
3C
42
42
42
42
42
42
42
42
3C
00
00
ENDCHAR
STARTCHAR P
ENCODING 80
SWIDTH 571 0
DWIDTH 8 0
BBX 8 14 0 -2
BITMAP
00
00
7C
42
42
42
42
7C
40
40
40
40
00
00
ENDCHAR
STARTCHAR Q
ENCODING 81
SWIDTH 571 0
DWIDTH 8 0
BBX 8 14 0 -2
BITMAP
00
00
3C
42
42
42
42
42
42
42
4A
3C
02
00
ENDCHAR
STARTCHAR R
ENCODING 82
SWIDTH 571 0
DWIDTH 8 0
BBX 8 14 0 -2
BITMAP
00
00
7C
42
42
42
42
7C
50
48
44
42
00
00
ENDCHAR
STARTCHAR S
ENCODING 83
SWIDTH 571 0
DWIDTH 8 0
BBX 8 14 0 -2
BITMAP
00
00
3C
42
40
40
3C
02
02
42
42
3C
00
00
ENDCHAR
STARTCHAR T
ENCODING 84
SWIDTH 571 0
DWIDTH 8 0
BBX 8 14 0 -2
BITMAP
00
00
FE
10
10
10
10
10
10
10
10
10
00
00
ENDCHAR
STARTCHAR U
ENCODING 85
SWIDTH 571 0
DWIDTH 8 0
BBX 8 14 0 -2
BITMAP
00
00
42
42
42
42
42
42
42
42
42
3C
00
00
ENDCHAR
STARTCHAR V
ENCODING 86
SWIDTH 571 0
DWIDTH 8 0
BBX 8 14 0 -2
BITMAP
00
00
42
42
42
42
42
24
24
24
18
18
00
00
ENDCHAR
STARTCHAR W
ENCODING 87
SWIDTH 571 0
DWIDTH 8 0
BBX 8 14 0 -2
BITMAP
00
00
82
82
82
82
82
92
92
AA
C6
82
00
00
ENDCHAR
STARTCHAR X
ENCODING 88
SWIDTH 571 0
DWIDTH 8 0
BBX 8 14 0 -2
BITMAP
00
00
42
42
24
24
18
18
24
24
42
42
00
00
ENDCHAR
STARTCHAR Y
ENCODING 89
SWIDTH 571 0
DWIDTH 8 0
BBX 8 14 0 -2
BITMAP
00
00
82
82
44
44
28
10
10
10
10
10
00
00
ENDCHAR
STARTCHAR Z
ENCODING 90
SWIDTH 571 0
DWIDTH 8 0
BBX 8 14 0 -2
BITMAP
00
00
7E
02
02
04
08
10
20
40
40
7E
00
00
ENDCHAR
STARTCHAR bracketleft
ENCODING 91
SWIDTH 571 0
DWIDTH 8 0
BBX 8 14 0 -2
BITMAP
00
00
38
20
20
20
20
20
20
20
20
38
00
00
ENDCHAR
STARTCHAR backslash
ENCODING 92
SWIDTH 571 0
DWIDTH 8 0
BBX 8 14 0 -2
BITMAP
00
00
40
40
20
20
10
10
08
08
04
04
00
00
ENDCHAR
STARTCHAR bracketright
ENCODING 93
SWIDTH 571 0
DWIDTH 8 0
BBX 8 14 0 -2
BITMAP
00
00
38
08
08
08
08
08
08
08
08
38
00
00
ENDCHAR
STARTCHAR asciicircum
ENCODING 94
SWIDTH 571 0
DWIDTH 8 0
BBX 8 14 0 -2
BITMAP
00
10
28
44
00
00
00
00
00
00
00
00
00
00
ENDCHAR
STARTCHAR underscore
ENCODING 95
SWIDTH 571 0
DWIDTH 8 0
BBX 8 14 0 -2
BITMAP
00
00
00
00
00
00
00
00
00
00
00
00
7E
00
ENDCHAR
STARTCHAR grave
ENCODING 96
SWIDTH 571 0
DWIDTH 8 0
BBX 8 14 0 -2
BITMAP
10
08
00
00
00
00
00
00
00
00
00
00
00
00
ENDCHAR
STARTCHAR a
ENCODING 97
SWIDTH 571 0
DWIDTH 8 0
BBX 8 14 0 -2
BITMAP
00
00
00
00
00
3C
02
3E
42
42
42
3E
00
00
ENDCHAR
STARTCHAR b
ENCODING 98
SWIDTH 571 0
DWIDTH 8 0
BBX 8 14 0 -2
BITMAP
00
00
40
40
40
7C
42
42
42
42
42
7C
00
00
ENDCHAR
STARTCHAR c
ENCODING 99
SWIDTH 571 0
DWIDTH 8 0
BBX 8 14 0 -2
BITMAP
00
00
00
00
00
3C
42
40
40
40
42
3C
00
00
ENDCHAR
STARTCHAR d
ENCODING 100
SWIDTH 571 0
DWIDTH 8 0
BBX 8 14 0 -2
BITMAP
00
00
02
02
02
3E
42
42
42
42
42
3E
00
00
ENDCHAR
STARTCHAR e
ENCODING 101
SWIDTH 571 0
DWIDTH 8 0
BBX 8 14 0 -2
BITMAP
00
00
00
00
00
3C
42
42
7E
40
40
3C
00
00
ENDCHAR
STARTCHAR f
ENCODING 102
SWIDTH 571 0
DWIDTH 8 0
BBX 8 14 0 -2
BITMAP
00
00
0E
10
10
7C
10
10
10
10
10
10
00
00
ENDCHAR
STARTCHAR g
ENCODING 103
SWIDTH 571 0
DWIDTH 8 0
BBX 8 14 0 -2
BITMAP
00
00
00
00
00
3E
42
42
42
42
42
3E
02
3C
ENDCHAR
STARTCHAR h
ENCODING 104
SWIDTH 571 0
DWIDTH 8 0
BBX 8 14 0 -2
BITMAP
00
00
40
40
40
7C
42
42
42
42
42
42
00
00
ENDCHAR
STARTCHAR i
ENCODING 105
SWIDTH 571 0
DWIDTH 8 0
BBX 8 14 0 -2
BITMAP
00
00
10
10
00
30
10
10
10
10
10
38
00
00
ENDCHAR
STARTCHAR j
ENCODING 106
SWIDTH 571 0
DWIDTH 8 0
BBX 8 14 0 -2
BITMAP
00
00
04
04
00
0C
04
04
04
04
04
44
44
38
ENDCHAR
STARTCHAR k
ENCODING 107
SWIDTH 571 0
DWIDTH 8 0
BBX 8 14 0 -2
BITMAP
00
00
40
40
40
42
44
48
70
48
44
42
00
00
ENDCHAR
STARTCHAR l
ENCODING 108
SWIDTH 571 0
DWIDTH 8 0
BBX 8 14 0 -2
BITMAP
00
00
30
10
10
10
10
10
10
10
10
38
00
00
ENDCHAR
STARTCHAR m
ENCODING 109
SWIDTH 571 0
DWIDTH 8 0
BBX 8 14 0 -2
BITMAP
00
00
00
00
00
FC
92
92
92
92
92
92
00
00
ENDCHAR
STARTCHAR n
ENCODING 110
SWIDTH 571 0
DWIDTH 8 0
BBX 8 14 0 -2
BITMAP
00
00
00
00
00
7C
42
42
42
42
42
42
00
00
ENDCHAR
STARTCHAR o
ENCODING 111
SWIDTH 571 0
DWIDTH 8 0
BBX 8 14 0 -2
BITMAP
00
00
00
00
00
3C
42
42
42
42
42
3C
00
00
ENDCHAR
STARTCHAR p
ENCODING 112
SWIDTH 571 0
DWIDTH 8 0
BBX 8 14 0 -2
BITMAP
00
00
00
00
00
7C
42
42
42
42
42
7C
40
40
ENDCHAR
STARTCHAR q
ENCODING 113
SWIDTH 571 0
DWIDTH 8 0
BBX 8 14 0 -2
BITMAP
00
00
00
00
00
3E
42
42
42
42
42
3E
02
02
ENDCHAR
STARTCHAR r
ENCODING 114
SWIDTH 571 0
DWIDTH 8 0
BBX 8 14 0 -2
BITMAP
00
00
00
00
00
5E
60
40
40
40
40
40
00
00
ENDCHAR
STARTCHAR s
ENCODING 115
SWIDTH 571 0
DWIDTH 8 0
BBX 8 14 0 -2
BITMAP
00
00
00
00
00
3E
40
40
3C
02
02
7C
00
00
ENDCHAR
STARTCHAR t
ENCODING 116
SWIDTH 571 0
DWIDTH 8 0
BBX 8 14 0 -2
BITMAP
00
00
10
10
10
7C
10
10
10
10
10
0E
00
00
ENDCHAR
STARTCHAR u
ENCODING 117
SWIDTH 571 0
DWIDTH 8 0
BBX 8 14 0 -2
BITMAP
00
00
00
00
00
42
42
42
42
42
42
3E
00
00
ENDCHAR
STARTCHAR v
ENCODING 118
SWIDTH 571 0
DWIDTH 8 0
BBX 8 14 0 -2
BITMAP
00
00
00
00
00
42
42
42
24
24
18
18
00
00
ENDCHAR
STARTCHAR w
ENCODING 119
SWIDTH 571 0
DWIDTH 8 0
BBX 8 14 0 -2
BITMAP
00
00
00
00
00
82
82
92
92
92
92
7C
00
00
ENDCHAR
STARTCHAR x
ENCODING 120
SWIDTH 571 0
DWIDTH 8 0
BBX 8 14 0 -2
BITMAP
00
00
00
00
00
42
42
24
18
24
42
42
00
00
ENDCHAR
STARTCHAR y
ENCODING 121
SWIDTH 571 0
DWIDTH 8 0
BBX 8 14 0 -2
BITMAP
00
00
00
00
00
42
42
42
42
42
42
3E
02
3C
ENDCHAR
STARTCHAR z
ENCODING 122
SWIDTH 571 0
DWIDTH 8 0
BBX 8 14 0 -2
BITMAP
00
00
00
00
00
7E
04
08
10
20
40
7E
00
00
ENDCHAR
STARTCHAR braceleft
ENCODING 123
SWIDTH 571 0
DWIDTH 8 0
BBX 8 14 0 -2
BITMAP
00
00
0C
10
10
10
20
10
10
10
10
0C
00
00
ENDCHAR
STARTCHAR bar
ENCODING 124
SWIDTH 571 0
DWIDTH 8 0
BBX 8 14 0 -2
BITMAP
00
00
10
10
10
10
10
10
10
10
10
10
00
00
ENDCHAR
STARTCHAR braceright
ENCODING 125
SWIDTH 571 0
DWIDTH 8 0
BBX 8 14 0 -2
BITMAP
00
00
30
08
08
08
04
08
08
08
08
30
00
00
ENDCHAR
STARTCHAR asciitilde
ENCODING 126
SWIDTH 571 0
DWIDTH 8 0
BBX 8 14 0 -2
BITMAP
00
00
00
00
00
00
62
92
8C
00
00
00
00
00
ENDCHAR
STARTCHAR house
ENCODING 127
SWIDTH 571 0
DWIDTH 8 0
BBX 8 14 0 -2
BITMAP
00
00
00
00
10
28
44
82
82
82
82
FE
00
00
ENDCHAR
STARTCHAR Euro
ENCODING 128
SWIDTH 571 0
DWIDTH 8 0
BBX 8 14 0 -2
BITMAP
00
00
00
1C
22
40
F8
40
F8
40
22
1C
00
00
ENDCHAR
STARTCHAR quotesinglbase
ENCODING 130
SWIDTH 571 0
DWIDTH 8 0
BBX 8 14 0 -2
BITMAP
00
00
00
00
00
00
00
00
00
00
08
08
10
00
ENDCHAR
STARTCHAR florin
ENCODING 131
SWIDTH 571 0
DWIDTH 8 0
BBX 8 14 0 -2
BITMAP
00
00
0C
12
10
10
7C
10
10
10
10
10
90
60
ENDCHAR
STARTCHAR quotedblbase
ENCODING 132
SWIDTH 571 0
DWIDTH 8 0
BBX 8 14 0 -2
BITMAP
00
00
00
00
00
00
00
00
00
00
24
24
48
00
ENDCHAR
STARTCHAR ellipsis
ENCODING 133
SWIDTH 571 0
DWIDTH 8 0
BBX 8 14 0 -2
BITMAP
00
00
00
00
00
00
00
00
00
00
92
92
00
00
ENDCHAR
STARTCHAR dagger
ENCODING 134
SWIDTH 571 0
DWIDTH 8 0
BBX 8 14 0 -2
BITMAP
00
00
10
10
7C
10
10
10
10
10
10
10
00
00
ENDCHAR
STARTCHAR daggerdbl
ENCODING 135
SWIDTH 571 0
DWIDTH 8 0
BBX 8 14 0 -2
BITMAP
00
00
10
10
7C
10
10
10
10
7C
10
10
00
00
ENDCHAR
STARTCHAR circumflex
ENCODING 136
SWIDTH 571 0
DWIDTH 8 0
BBX 8 14 0 -2
BITMAP
18
24
00
00
00
00
00
00
00
00
00
00
00
00
ENDCHAR
STARTCHAR perthousand
ENCODING 137
SWIDTH 571 0
DWIDTH 8 0
BBX 8 14 0 -2
BITMAP
00
00
48
A8
50
10
20
20
40
54
AA
94
00
00
ENDCHAR
STARTCHAR Scaron
ENCODING 138
SWIDTH 571 0
DWIDTH 8 0
BBX 8 14 0 -2
BITMAP
24
18
00
3C
42
40
40
3C
02
02
42
3C
00
00
ENDCHAR
STARTCHAR guilsinglleft
ENCODING 139
SWIDTH 571 0
DWIDTH 8 0
BBX 8 14 0 -2
BITMAP
00
00
00
00
00
04
08
10
20
10
08
04
00
00
ENDCHAR
STARTCHAR OE
ENCODING 140
SWIDTH 571 0
DWIDTH 8 0
BBX 8 14 0 -2
BITMAP
00
00
7E
90
90
90
9C
90
90
90
90
7E
00
00
ENDCHAR
STARTCHAR Zcaron
ENCODING 142
SWIDTH 571 0
DWIDTH 8 0
BBX 8 14 0 -2
BITMAP
24
18
00
7E
02
04
08
10
20
40
40
7E
00
00
ENDCHAR
STARTCHAR quoteleft
ENCODING 145
SWIDTH 571 0
DWIDTH 8 0
BBX 8 14 0 -2
BITMAP
00
08
10
10
00
00
00
00
00
00
00
00
00
00
ENDCHAR
STARTCHAR quoteright
ENCODING 146
SWIDTH 571 0
DWIDTH 8 0
BBX 8 14 0 -2
BITMAP
00
08
08
10
00
00
00
00
00
00
00
00
00
00
ENDCHAR
STARTCHAR quotedblleft
ENCODING 147
SWIDTH 571 0
DWIDTH 8 0
BBX 8 14 0 -2
BITMAP
00
12
24
24
00
00
00
00
00
00
00
00
00
00
ENDCHAR
STARTCHAR quotedblright
ENCODING 148
SWIDTH 571 0
DWIDTH 8 0
BBX 8 14 0 -2
BITMAP
00
12
12
24
00
00
00
00
00
00
00
00
00
00
ENDCHAR
STARTCHAR bullet
ENCODING 149
SWIDTH 571 0
DWIDTH 8 0
BBX 8 14 0 -2
BITMAP
00
00
00
00
00
18
3C
3C
18
00
00
00
00
00
ENDCHAR
STARTCHAR endash
ENCODING 150
SWIDTH 571 0
DWIDTH 8 0
BBX 8 14 0 -2
BITMAP
00
00
00
00
00
00
00
7E
00
00
00
00
00
00
ENDCHAR
STARTCHAR emdash
ENCODING 151
SWIDTH 571 0
DWIDTH 8 0
BBX 8 14 0 -2
BITMAP
00
00
00
00
00
00
00
FE
00
00
00
00
00
00
ENDCHAR
STARTCHAR tilde
ENCODING 152
SWIDTH 571 0
DWIDTH 8 0
BBX 8 14 0 -2
BITMAP
32
4C
00
00
00
00
00
00
00
00
00
00
00
00
ENDCHAR
STARTCHAR trademark
ENCODING 153
SWIDTH 571 0
DWIDTH 8 0
BBX 8 14 0 -2
BITMAP
00
00
FB
55
55
51
00
00
00
00
00
00
00
00
ENDCHAR
STARTCHAR scaron
ENCODING 154
SWIDTH 571 0
DWIDTH 8 0
BBX 8 14 0 -2
BITMAP
00
00
24
18
00
3E
40
40
3C
02
02
7C
00
00
ENDCHAR
STARTCHAR guilsinglright
ENCODING 155
SWIDTH 571 0
DWIDTH 8 0
BBX 8 14 0 -2
BITMAP
00
00
00
00
00
20
10
08
04
08
10
20
00
00
ENDCHAR
STARTCHAR oe
ENCODING 156
SWIDTH 571 0
DWIDTH 8 0
BBX 8 14 0 -2
BITMAP
00
00
00
00
00
7C
92
92
9E
90
90
7C
00
00
ENDCHAR
STARTCHAR zcaron
ENCODING 158
SWIDTH 571 0
DWIDTH 8 0
BBX 8 14 0 -2
BITMAP
00
00
24
18
00
7E
04
08
10
20
40
7E
00
00
ENDCHAR
STARTCHAR Ydieresis
ENCODING 159
SWIDTH 571 0
DWIDTH 8 0
BBX 8 14 0 -2
BITMAP
44
44
00
82
82
44
44
28
10
10
10
10
00
00
ENDCHAR
STARTCHAR nbspace
ENCODING 160
SWIDTH 571 0
DWIDTH 8 0
BBX 8 14 0 -2
BITMAP
00
00
00
00
00
00
00
00
00
00
00
00
00
00
ENDCHAR
STARTCHAR exclamdown
ENCODING 161
SWIDTH 571 0
DWIDTH 8 0
BBX 8 14 0 -2
BITMAP
00
00
10
10
00
10
10
10
10
10
10
10
00
00
ENDCHAR
STARTCHAR cent
ENCODING 162
SWIDTH 571 0
DWIDTH 8 0
BBX 8 14 0 -2
BITMAP
00
00
00
10
10
7C
92
90
90
90
92
7C
10
10
ENDCHAR
STARTCHAR sterling
ENCODING 163
SWIDTH 571 0
DWIDTH 8 0
BBX 8 14 0 -2
BITMAP
00
00
18
24
20
20
78
20
20
20
22
7E
00
00
ENDCHAR
STARTCHAR currency
ENCODING 164
SWIDTH 571 0
DWIDTH 8 0
BBX 8 14 0 -2
BITMAP
00
00
00
00
44
38
44
44
44
38
44
00
00
00
ENDCHAR
STARTCHAR yen
ENCODING 165
SWIDTH 571 0
DWIDTH 8 0
BBX 8 14 0 -2
BITMAP
00
00
82
82
44
28
10
7C
10
7C
10
10
00
00
ENDCHAR
STARTCHAR brokenbar
ENCODING 166
SWIDTH 571 0
DWIDTH 8 0
BBX 8 14 0 -2
BITMAP
00
00
10
10
10
10
00
00
10
10
10
10
00
00
ENDCHAR
STARTCHAR section
ENCODING 167
SWIDTH 571 0
DWIDTH 8 0
BBX 8 14 0 -2
BITMAP
00
38
44
40
30
48
44
44
24
18
04
44
38
00
ENDCHAR
STARTCHAR dieresis
ENCODING 168
SWIDTH 571 0
DWIDTH 8 0
BBX 8 14 0 -2
BITMAP
24
24
00
00
00
00
00
00
00
00
00
00
00
00
ENDCHAR
STARTCHAR copyright
ENCODING 169
SWIDTH 571 0
DWIDTH 8 0
BBX 8 14 0 -2
BITMAP
00
00
00
7E
81
99
A5
A1
A5
99
81
7E
00
00
ENDCHAR
STARTCHAR ordfeminine
ENCODING 170
SWIDTH 571 0
DWIDTH 8 0
BBX 8 14 0 -2
BITMAP
00
38
04
3C
44
3C
00
7C
00
00
00
00
00
00
ENDCHAR
STARTCHAR guillemotleft
ENCODING 171
SWIDTH 571 0
DWIDTH 8 0
BBX 8 14 0 -2
BITMAP
00
00
00
00
00
12
24
48
90
48
24
12
00
00
ENDCHAR
STARTCHAR logicalnot
ENCODING 172
SWIDTH 571 0
DWIDTH 8 0
BBX 8 14 0 -2
BITMAP
00
00
00
00
00
7E
02
02
02
00
00
00
00
00
ENDCHAR
STARTCHAR softhyphen
ENCODING 173
SWIDTH 571 0
DWIDTH 8 0
BBX 8 14 0 -2
BITMAP
00
00
00
00
00
00
00
3C
00
00
00
00
00
00
ENDCHAR
STARTCHAR registered
ENCODING 174
SWIDTH 571 0
DWIDTH 8 0
BBX 8 14 0 -2
BITMAP
00
00
00
7E
81
B9
A5
B9
A9
A5
81
7E
00
00
ENDCHAR
STARTCHAR macron
ENCODING 175
SWIDTH 571 0
DWIDTH 8 0
BBX 8 14 0 -2
BITMAP
3C
00
00
00
00
00
00
00
00
00
00
00
00
00
ENDCHAR
STARTCHAR degree
ENCODING 176
SWIDTH 571 0
DWIDTH 8 0
BBX 8 14 0 -2
BITMAP
00
18
24
24
18
00
00
00
00
00
00
00
00
00
ENDCHAR
STARTCHAR plusminus
ENCODING 177
SWIDTH 571 0
DWIDTH 8 0
BBX 8 14 0 -2
BITMAP
00
00
00
00
00
10
10
7C
10
10
00
7C
00
00
ENDCHAR
STARTCHAR twosuperior
ENCODING 178
SWIDTH 571 0
DWIDTH 8 0
BBX 8 14 0 -2
BITMAP
00
18
24
08
10
3C
00
00
00
00
00
00
00
00
ENDCHAR
STARTCHAR threesuperior
ENCODING 179
SWIDTH 571 0
DWIDTH 8 0
BBX 8 14 0 -2
BITMAP
00
38
04
18
04
38
00
00
00
00
00
00
00
00
ENDCHAR
STARTCHAR acute
ENCODING 180
SWIDTH 571 0
DWIDTH 8 0
BBX 8 14 0 -2
BITMAP
08
10
00
00
00
00
00
00
00
00
00
00
00
00
ENDCHAR
STARTCHAR mu
ENCODING 181
SWIDTH 571 0
DWIDTH 8 0
BBX 8 14 0 -2
BITMAP
00
00
00
00
00
42
42
42
42
42
46
7A
40
40
ENDCHAR
STARTCHAR paragraph
ENCODING 182
SWIDTH 571 0
DWIDTH 8 0
BBX 8 14 0 -2
BITMAP
00
00
7E
92
92
92
92
72
12
12
12
12
00
00
ENDCHAR
STARTCHAR periodcentered
ENCODING 183
SWIDTH 571 0
DWIDTH 8 0
BBX 8 14 0 -2
BITMAP
00
00
00
00
00
00
10
10
00
00
00
00
00
00
ENDCHAR
STARTCHAR cedilla
ENCODING 184
SWIDTH 571 0
DWIDTH 8 0
BBX 8 14 0 -2
BITMAP
00
00
00
00
00
00
00
00
00
00
00
10
10
20
ENDCHAR
STARTCHAR onesuperior
ENCODING 185
SWIDTH 571 0
DWIDTH 8 0
BBX 8 14 0 -2
BITMAP
00
10
30
10
10
10
00
00
00
00
00
00
00
00
ENDCHAR
STARTCHAR ordmasculine
ENCODING 186
SWIDTH 571 0
DWIDTH 8 0
BBX 8 14 0 -2
BITMAP
00
38
44
44
44
38
00
7C
00
00
00
00
00
00
ENDCHAR
STARTCHAR guillemotright
ENCODING 187
SWIDTH 571 0
DWIDTH 8 0
BBX 8 14 0 -2
BITMAP
00
00
00
00
00
90
48
24
12
24
48
90
00
00
ENDCHAR
STARTCHAR onequarter
ENCODING 188
SWIDTH 571 0
DWIDTH 8 0
BBX 8 14 0 -2
BITMAP
20
60
20
22
24
08
10
22
46
8A
1E
02
02
00
ENDCHAR
STARTCHAR onehalf
ENCODING 189
SWIDTH 571 0
DWIDTH 8 0
BBX 8 14 0 -2
BITMAP
20
60
20
22
24
08
10
20
4C
92
04
08
1E
00
ENDCHAR
STARTCHAR threequarters
ENCODING 190
SWIDTH 571 0
DWIDTH 8 0
BBX 8 14 0 -2
BITMAP
E0
10
60
12
E4
08
10
22
46
8A
1E
02
02
00
ENDCHAR
STARTCHAR questiondown
ENCODING 191
SWIDTH 571 0
DWIDTH 8 0
BBX 8 14 0 -2
BITMAP
00
00
10
10
00
10
10
20
42
42
42
3C
00
00
ENDCHAR
STARTCHAR Agrave
ENCODING 192
SWIDTH 571 0
DWIDTH 8 0
BBX 8 14 0 -2
BITMAP
10
08
00
3C
42
42
42
7E
42
42
42
42
00
00
ENDCHAR
STARTCHAR Aacute
ENCODING 193
SWIDTH 571 0
DWIDTH 8 0
BBX 8 14 0 -2
BITMAP
08
10
00
3C
42
42
42
7E
42
42
42
42
00
00
ENDCHAR
STARTCHAR Acircumflex
ENCODING 194
SWIDTH 571 0
DWIDTH 8 0
BBX 8 14 0 -2
BITMAP
18
24
00
3C
42
42
42
7E
42
42
42
42
00
00
ENDCHAR
STARTCHAR Atilde
ENCODING 195
SWIDTH 571 0
DWIDTH 8 0
BBX 8 14 0 -2
BITMAP
32
4C
00
3C
42
42
42
7E
42
42
42
42
00
00
ENDCHAR
STARTCHAR Adieresis
ENCODING 196
SWIDTH 571 0
DWIDTH 8 0
BBX 8 14 0 -2
BITMAP
24
24
00
3C
42
42
42
7E
42
42
42
42
00
00
ENDCHAR
STARTCHAR Aring
ENCODING 197
SWIDTH 571 0
DWIDTH 8 0
BBX 8 14 0 -2
BITMAP
18
24
18
3C
42
42
42
7E
42
42
42
42
00
00
ENDCHAR
STARTCHAR AE
ENCODING 198
SWIDTH 571 0
DWIDTH 8 0
BBX 8 14 0 -2
BITMAP
00
00
7E
90
90
90
FC
90
90
90
90
9E
00
00
ENDCHAR
STARTCHAR Ccedilla
ENCODING 199
SWIDTH 571 0
DWIDTH 8 0
BBX 8 14 0 -2
BITMAP
00
00
3C
42
42
40
40
40
40
42
42
3C
10
20
ENDCHAR
STARTCHAR Egrave
ENCODING 200
SWIDTH 571 0
DWIDTH 8 0
BBX 8 14 0 -2
BITMAP
10
08
00
7E
40
40
40
78
40
40
40
7E
00
00
ENDCHAR
STARTCHAR Eacute
ENCODING 201
SWIDTH 571 0
DWIDTH 8 0
BBX 8 14 0 -2
BITMAP
08
10
00
7E
40
40
40
78
40
40
40
7E
00
00
ENDCHAR
STARTCHAR Ecircumflex
ENCODING 202
SWIDTH 571 0
DWIDTH 8 0
BBX 8 14 0 -2
BITMAP
18
24
00
7E
40
40
40
78
40
40
40
7E
00
00
ENDCHAR
STARTCHAR Edieresis
ENCODING 203
SWIDTH 571 0
DWIDTH 8 0
BBX 8 14 0 -2
BITMAP
24
24
00
7E
40
40
40
78
40
40
40
7E
00
00
ENDCHAR
STARTCHAR Igrave
ENCODING 204
SWIDTH 571 0
DWIDTH 8 0
BBX 8 14 0 -2
BITMAP
20
10
00
38
10
10
10
10
10
10
10
38
00
00
ENDCHAR
STARTCHAR Iacute
ENCODING 205
SWIDTH 571 0
DWIDTH 8 0
BBX 8 14 0 -2
BITMAP
08
10
00
38
10
10
10
10
10
10
10
38
00
00
ENDCHAR
STARTCHAR Icircumflex
ENCODING 206
SWIDTH 571 0
DWIDTH 8 0
BBX 8 14 0 -2
BITMAP
18
24
00
38
10
10
10
10
10
10
10
38
00
00
ENDCHAR
STARTCHAR Idieresis
ENCODING 207
SWIDTH 571 0
DWIDTH 8 0
BBX 8 14 0 -2
BITMAP
44
44
00
38
10
10
10
10
10
10
10
38
00
00
ENDCHAR
STARTCHAR Eth
ENCODING 208
SWIDTH 571 0
DWIDTH 8 0
BBX 8 14 0 -2
BITMAP
00
00
78
44
42
42
F2
42
42
42
44
78
00
00
ENDCHAR
STARTCHAR Ntilde
ENCODING 209
SWIDTH 571 0
DWIDTH 8 0
BBX 8 14 0 -2
BITMAP
32
4C
00
42
42
62
52
4A
46
42
42
42
00
00
ENDCHAR
STARTCHAR Ograve
ENCODING 210
SWIDTH 571 0
DWIDTH 8 0
BBX 8 14 0 -2
BITMAP
10
08
00
3C
42
42
42
42
42
42
42
3C
00
00
ENDCHAR
STARTCHAR Oacute
ENCODING 211
SWIDTH 571 0
DWIDTH 8 0
BBX 8 14 0 -2
BITMAP
08
10
00
3C
42
42
42
42
42
42
42
3C
00
00
ENDCHAR
STARTCHAR Ocircumflex
ENCODING 212
SWIDTH 571 0
DWIDTH 8 0
BBX 8 14 0 -2
BITMAP
18
24
00
3C
42
42
42
42
42
42
42
3C
00
00
ENDCHAR
STARTCHAR Otilde
ENCODING 213
SWIDTH 571 0
DWIDTH 8 0
BBX 8 14 0 -2
BITMAP
32
4C
00
3C
42
42
42
42
42
42
42
3C
00
00
ENDCHAR
STARTCHAR Odieresis
ENCODING 214
SWIDTH 571 0
DWIDTH 8 0
BBX 8 14 0 -2
BITMAP
24
24
00
3C
42
42
42
42
42
42
42
3C
00
00
ENDCHAR
STARTCHAR multiply
ENCODING 215
SWIDTH 571 0
DWIDTH 8 0
BBX 8 14 0 -2
BITMAP
00
00
00
00
00
42
24
18
18
24
42
00
00
00
ENDCHAR
STARTCHAR Oslash
ENCODING 216
SWIDTH 571 0
DWIDTH 8 0
BBX 8 14 0 -2
BITMAP
00
00
3C
43
42
46
4A
52
62
42
C2
3C
00
00
ENDCHAR
STARTCHAR Ugrave
ENCODING 217
SWIDTH 571 0
DWIDTH 8 0
BBX 8 14 0 -2
BITMAP
10
08
42
42
42
42
42
42
42
42
42
3C
00
00
ENDCHAR
STARTCHAR Uacute
ENCODING 218
SWIDTH 571 0
DWIDTH 8 0
BBX 8 14 0 -2
BITMAP
08
10
42
42
42
42
42
42
42
42
42
3C
00
00
ENDCHAR
STARTCHAR Ucircumflex
ENCODING 219
SWIDTH 571 0
DWIDTH 8 0
BBX 8 14 0 -2
BITMAP
18
24
00
42
42
42
42
42
42
42
42
3C
00
00
ENDCHAR
STARTCHAR Udieresis
ENCODING 220
SWIDTH 571 0
DWIDTH 8 0
BBX 8 14 0 -2
BITMAP
24
24
00
42
42
42
42
42
42
42
42
3C
00
00
ENDCHAR
STARTCHAR Yacute
ENCODING 221
SWIDTH 571 0
DWIDTH 8 0
BBX 8 14 0 -2
BITMAP
08
10
82
82
44
44
28
10
10
10
10
10
00
00
ENDCHAR
STARTCHAR Thorn
ENCODING 222
SWIDTH 571 0
DWIDTH 8 0
BBX 8 14 0 -2
BITMAP
00
00
40
40
7C
42
42
42
42
7C
40
40
00
00
ENDCHAR
STARTCHAR germandbls
ENCODING 223
SWIDTH 571 0
DWIDTH 8 0
BBX 8 14 0 -2
BITMAP
00
00
38
44
44
48
7C
42
42
42
62
5C
00
00
ENDCHAR
STARTCHAR agrave
ENCODING 224
SWIDTH 571 0
DWIDTH 8 0
BBX 8 14 0 -2
BITMAP
00
00
10
08
00
3C
02
3E
42
42
42
3E
00
00
ENDCHAR
STARTCHAR aacute
ENCODING 225
SWIDTH 571 0
DWIDTH 8 0
BBX 8 14 0 -2
BITMAP
00
00
08
10
00
3C
02
3E
42
42
42
3E
00
00
ENDCHAR
STARTCHAR acircumflex
ENCODING 226
SWIDTH 571 0
DWIDTH 8 0
BBX 8 14 0 -2
BITMAP
00
00
18
24
00
3C
02
3E
42
42
42
3E
00
00
ENDCHAR
STARTCHAR atilde
ENCODING 227
SWIDTH 571 0
DWIDTH 8 0
BBX 8 14 0 -2
BITMAP
00
00
32
4C
00
3C
02
3E
42
42
42
3E
00
00
ENDCHAR
STARTCHAR adieresis
ENCODING 228
SWIDTH 571 0
DWIDTH 8 0
BBX 8 14 0 -2
BITMAP
00
00
24
24
00
3C
02
3E
42
42
42
3E
00
00
ENDCHAR
STARTCHAR aring
ENCODING 229
SWIDTH 571 0
DWIDTH 8 0
BBX 8 14 0 -2
BITMAP
00
00
18
24
18
3C
02
3E
42
42
42
3E
00
00
ENDCHAR
STARTCHAR ae
ENCODING 230
SWIDTH 571 0
DWIDTH 8 0
BBX 8 14 0 -2
BITMAP
00
00
00
00
00
6C
12
72
9E
90
90
6C
00
00
ENDCHAR
STARTCHAR ccedilla
ENCODING 231
SWIDTH 571 0
DWIDTH 8 0
BBX 8 14 0 -2
BITMAP
00
00
00
00
00
3C
42
40
40
40
42
3C
10
20
ENDCHAR
STARTCHAR egrave
ENCODING 232
SWIDTH 571 0
DWIDTH 8 0
BBX 8 14 0 -2
BITMAP
00
00
10
08
00
3C
42
42
7E
40
40
3C
00
00
ENDCHAR
STARTCHAR eacute
ENCODING 233
SWIDTH 571 0
DWIDTH 8 0
BBX 8 14 0 -2
BITMAP
00
00
08
10
00
3C
42
42
7E
40
40
3C
00
00
ENDCHAR
STARTCHAR ecircumflex
ENCODING 234
SWIDTH 571 0
DWIDTH 8 0
BBX 8 14 0 -2
BITMAP
00
00
18
24
00
3C
42
42
7E
40
40
3C
00
00
ENDCHAR
STARTCHAR edieresis
ENCODING 235
SWIDTH 571 0
DWIDTH 8 0
BBX 8 14 0 -2
BITMAP
00
00
24
24
00
3C
42
42
7E
40
40
3C
00
00
ENDCHAR
STARTCHAR igrave
ENCODING 236
SWIDTH 571 0
DWIDTH 8 0
BBX 8 14 0 -2
BITMAP
00
00
20
10
00
30
10
10
10
10
10
38
00
00
ENDCHAR
STARTCHAR iacute
ENCODING 237
SWIDTH 571 0
DWIDTH 8 0
BBX 8 14 0 -2
BITMAP
00
00
08
10
00
30
10
10
10
10
10
38
00
00
ENDCHAR
STARTCHAR icircumflex
ENCODING 238
SWIDTH 571 0
DWIDTH 8 0
BBX 8 14 0 -2
BITMAP
00
00
30
48
00
30
10
10
10
10
10
38
00
00
ENDCHAR
STARTCHAR idieresis
ENCODING 239
SWIDTH 571 0
DWIDTH 8 0
BBX 8 14 0 -2
BITMAP
00
00
48
48
00
30
10
10
10
10
10
38
00
00
ENDCHAR
STARTCHAR eth
ENCODING 240
SWIDTH 571 0
DWIDTH 8 0
BBX 8 14 0 -2
BITMAP
00
00
28
10
28
3C
42
42
42
42
42
3C
00
00
ENDCHAR
STARTCHAR ntilde
ENCODING 241
SWIDTH 571 0
DWIDTH 8 0
BBX 8 14 0 -2
BITMAP
00
00
32
4C
00
7C
42
42
42
42
42
42
00
00
ENDCHAR
STARTCHAR ograve
ENCODING 242
SWIDTH 571 0
DWIDTH 8 0
BBX 8 14 0 -2
BITMAP
00
00
10
08
00
3C
42
42
42
42
42
3C
00
00
ENDCHAR
STARTCHAR oacute
ENCODING 243
SWIDTH 571 0
DWIDTH 8 0
BBX 8 14 0 -2
BITMAP
00
00
08
10
00
3C
42
42
42
42
42
3C
00
00
ENDCHAR
STARTCHAR ocircumflex
ENCODING 244
SWIDTH 571 0
DWIDTH 8 0
BBX 8 14 0 -2
BITMAP
00
00
18
24
00
3C
42
42
42
42
42
3C
00
00
ENDCHAR
STARTCHAR otilde
ENCODING 245
SWIDTH 571 0
DWIDTH 8 0
BBX 8 14 0 -2
BITMAP
00
00
32
4C
00
3C
42
42
42
42
42
3C
00
00
ENDCHAR
STARTCHAR odieresis
ENCODING 246
SWIDTH 571 0
DWIDTH 8 0
BBX 8 14 0 -2
BITMAP
00
00
24
24
00
3C
42
42
42
42
42
3C
00
00
ENDCHAR
STARTCHAR divide
ENCODING 247
SWIDTH 571 0
DWIDTH 8 0
BBX 8 14 0 -2
BITMAP
00
00
00
00
10
10
00
7C
00
10
10
00
00
00
ENDCHAR
STARTCHAR oslash
ENCODING 248
SWIDTH 571 0
DWIDTH 8 0
BBX 8 14 0 -2
BITMAP
00
00
00
00
02
3C
46
4A
52
62
42
BC
00
00
ENDCHAR
STARTCHAR ugrave
ENCODING 249
SWIDTH 571 0
DWIDTH 8 0
BBX 8 14 0 -2
BITMAP
00
00
10
08
00
42
42
42
42
42
42
3E
00
00
ENDCHAR
STARTCHAR uacute
ENCODING 250
SWIDTH 571 0
DWIDTH 8 0
BBX 8 14 0 -2
BITMAP
00
00
08
10
00
42
42
42
42
42
42
3E
00
00
ENDCHAR
STARTCHAR ucircumflex
ENCODING 251
SWIDTH 571 0
DWIDTH 8 0
BBX 8 14 0 -2
BITMAP
00
00
18
24
00
42
42
42
42
42
42
3E
00
00
ENDCHAR
STARTCHAR udieresis
ENCODING 252
SWIDTH 571 0
DWIDTH 8 0
BBX 8 14 0 -2
BITMAP
00
00
24
24
00
42
42
42
42
42
42
3E
00
00
ENDCHAR
STARTCHAR yacute
ENCODING 253
SWIDTH 571 0
DWIDTH 8 0
BBX 8 14 0 -2
BITMAP
00
00
08
10
00
42
42
42
42
42
42
3E
02
3C
ENDCHAR
STARTCHAR thorn
ENCODING 254
SWIDTH 571 0
DWIDTH 8 0
BBX 8 14 0 -2
BITMAP
00
00
40
40
40
7C
42
42
42
42
42
7C
40
40
ENDCHAR
STARTCHAR ydieresis
ENCODING 255
SWIDTH 571 0
DWIDTH 8 0
BBX 8 14 0 -2
BITMAP
00
00
24
24
00
42
42
42
42
42
42
3E
02
3C
ENDCHAR
STARTCHAR char57504
ENCODING 57504
SWIDTH 571 0
DWIDTH 8 0
BBX 8 14 0 -2
BITMAP
00
00
60
6C
7E
6C
6C
5C
38
70
60
60
00
00
ENDCHAR
STARTCHAR char57505
ENCODING 57505
SWIDTH 571 0
DWIDTH 8 0
BBX 8 14 0 -2
BITMAP
00
40
40
40
40
70
00
12
1A
16
12
12
00
00
ENDCHAR
STARTCHAR char57506
ENCODING 57506
SWIDTH 571 0
DWIDTH 8 0
BBX 8 14 0 -2
BITMAP
00
18
24
24
24
7E
7E
66
66
7E
7E
00
00
00
ENDCHAR
STARTCHAR char57520
ENCODING 57520
SWIDTH 571 0
DWIDTH 8 0
BBX 8 14 0 -2
BITMAP
80
C0
E0
F0
F0
F0
F0
F0
F0
F0
F0
F0
F0
F0
ENDCHAR
STARTCHAR char57521
ENCODING 57521
SWIDTH 571 0
DWIDTH 8 0
BBX 8 14 0 -2
BITMAP
00
10
10
10
10
10
10
10
10
10
10
10
10
00
ENDCHAR
STARTCHAR char57522
ENCODING 57522
SWIDTH 571 0
DWIDTH 8 0
BBX 8 14 0 -2
BITMAP
01
03
07
0F
0F
0F
0F
0F
0F
0F
0F
0F
0F
0F
ENDCHAR
STARTCHAR char57523
ENCODING 57523
SWIDTH 571 0
DWIDTH 8 0
BBX 8 14 0 -2
BITMAP
00
10
10
10
10
10
10
10
10
10
10
10
10
00
ENDCHAR
STARTCHAR char57536
ENCODING 57536
SWIDTH 571 0
DWIDTH 8 0
BBX 8 14 0 -2
BITMAP
F0
F0
F0
F0
F0
F0
F0
F0
F0
F0
F0
E0
C0
80
ENDCHAR
STARTCHAR char57537
ENCODING 57537
SWIDTH 571 0
DWIDTH 8 0
BBX 8 14 0 -2
BITMAP
0F
0F
0F
0F
0F
0F
0F
0F
0F
0F
0F
07
03
01
ENDCHAR
STARTCHAR char57538
ENCODING 57538
SWIDTH 571 0
DWIDTH 8 0
BBX 8 14 0 -2
BITMAP
80
C0
E0
F0
F0
F0
F0
F0
F0
F0
F0
E0
C0
80
ENDCHAR
STARTCHAR char57539
ENCODING 57539
SWIDTH 571 0
DWIDTH 8 0
BBX 8 14 0 -2
BITMAP
01
03
07
0F
0F
0F
0F
0F
0F
0F
0F
07
03
01
ENDCHAR
ENDFONT
